<?xml version="1.0" encoding="UTF-8"?>
<svg width="23px" height="17px" viewBox="0 0 23 17" version="1.1" xmlns="http://www.w3.org/2000/svg" xmlns:xlink="http://www.w3.org/1999/xlink">
    <!-- Generator: Sketch 43.1 (39012) - http://www.bohemiancoding.com/sketch -->
    <title>icon-discord</title>
    <desc>Created with Sketch.</desc>
    <defs></defs>
    <g id="Page-1" stroke="none" stroke-width="1" fill="none" fill-rule="evenodd">
        <g id="iconmonstr-discord-1" fill="#FFFFFF">
            <path d="M16.5504,16.1281596 C20.7936,15.9937596 22.4256,13.2097596 22.4256,13.2097596 C22.4256,7.02735956 19.6608,2.01615956 19.6608,2.01615956 C16.896,-0.0574404432 14.2656,0.000159556787 14.2656,0.000159556787 L13.9968,0.307359557 C17.2608,1.30575956 18.7776,2.74575956 18.7776,2.74575956 C16.7808,1.65135956 14.8224,1.11375956 12.9984,0.902559557 C11.616,0.748959557 10.2912,0.787359557 9.12,0.940959557 L8.7936,0.979359557 C8.1216,1.03695956 6.4896,1.28655956 4.4352,2.18895956 C3.7248,2.51535956 3.3024,2.74575956 3.3024,2.74575956 C3.3024,2.74575956 4.896,1.22895956 8.352,0.230559557 L8.16,0.000159556787 C8.16,0.000159556787 5.5296,-0.0574404432 2.7648,2.01615956 C2.7648,2.01615956 0,7.02735956 0,13.2097596 C0,13.2097596 1.6128,15.9937596 5.856,16.1281596 C5.856,16.1281596 6.5664,15.2641596 7.1424,14.5345596 C4.704,13.8049596 3.7824,12.2689596 3.7824,12.2689596 L4.32,12.5953596 L4.3968,12.6529596 L4.472,12.6961596 L4.4944,12.7057596 L4.5696,12.7489596 C5.0496,13.0177596 5.5296,13.2289596 5.9712,13.4017596 C6.7584,13.7089596 7.6992,14.0161596 8.7936,14.2273596 C10.2336,14.4961596 11.9232,14.5921596 13.7664,14.2465596 C14.6688,14.0929596 15.5904,13.8241596 16.5504,13.4209596 C17.2224,13.1713596 17.9712,12.8065596 18.7584,12.2881596 C18.7584,12.2881596 17.7984,13.8625596 15.2832,14.5729596 C15.8592,15.3025596 16.5504,16.1281596 16.5504,16.1281596 L16.5504,16.1281596 Z M7.6224,7.16175956 C6.528,7.16175956 5.664,8.12175956 5.664,9.29295956 C5.664,10.4641596 6.5472,11.4241596 7.6224,11.4241596 C8.7168,11.4241596 9.5808,10.4641596 9.5808,9.29295956 C9.6,8.12175956 8.7168,7.16175956 7.6224,7.16175956 Z M14.6304,7.16175956 C13.536,7.16175956 12.672,8.12175956 12.672,9.29295956 C12.672,10.4641596 13.5552,11.4241596 14.6304,11.4241596 C15.7248,11.4241596 16.5888,10.4641596 16.5888,9.29295956 C16.5888,8.12175956 15.7248,7.16175956 14.6304,7.16175956 Z" id="Shape"></path>
        </g>
    </g>
</svg>